# xmcd
#
# Track frame offsets: 
#        182
#        17752
#        42362
#        62062
#        78327
#        95540
#        120375
#        141842
#        159197
#        175815
#
# Disc length: 2570 seconds
#
# Revision: 0
# Processed by: cddbd v1.5.1PL0 Copyright (c) Steve Scherf et al.
# Submitted via: ExactAudioCopy v0.95b2
#
DISCID=760a080a
DTITLE='70s Soul - Curtis Mayfield
DYEAR=2001
DGENRE=Soul
TTITLE0=Superfly
TTITLE1=Freddie's Dead
TTITLE2=Only You Babe
TTITLE3=Can't Say Nothin'
TTITLE4=Party Night
TTITLE5=Do Do Wap is Strong in Here
TTITLE6=We Got To Have Peace
TTITLE7=Sweet Exorcist
TTITLE8=Do It All Night
TTITLE9=Show Me Love
EXTD=
EXTT0=
EXTT1=
EXTT2=
EXTT3=
EXTT4=
EXTT5=
EXTT6=
EXTT7=
EXTT8=
EXTT9=
PLAYORDER=
